HIERARCHY
ROOT Hips
{
  OFFSET -35.4901 99.2528 17.4586
  CHANNELS 6 Xposition Yposition Zposition Zrotation Xrotation Yrotation
  JOINT LeftUpLeg
  {
    OFFSET 8.64259 1.95398 -2.38835
    CHANNELS 3 Zrotation Xrotation Yrotation
    JOINT LeftLeg
    {
      OFFSET 43.7702 0 0
      CHANNELS 3 Zrotation Xrotation Yrotation
      JOINT LeftFoot
      {
        OFFSET 40.6238 0 0
        CHANNELS 3 Zrotation Xrotation Yrotation
        JOINT LeftToeBase
        {
          OFFSET 12.7242 0 0
          CHANNELS 3 Zrotation Xrotation Yrotation
          End Site
          {
            OFFSET 0 0 0
          }
        }
      }
    }
  }
  JOINT RightUpLeg
  {
    OFFSET -8.2249 1.95398 -2.59336
    CHANNELS 3 Zrotation Xrotation Yrotation
    JOINT RightLeg
    {
      OFFSET 43.5653 0 0
      CHANNELS 3 Zrotation Xrotation Yrotation
      JOINT RightFoot
      {
        OFFSET 40.6238 0 0
        CHANNELS 3 Zrotation Xrotation Yrotation
        JOINT RightToeBase
        {
          OFFSET 12.7242 0 0
          CHANNELS 3 Zrotation Xrotation Yrotation
          End Site
          {
            OFFSET 0 0 0
          }
        }
      }
    }
  }
  JOINT Spine
  {
    OFFSET 0.165834 0.87714 6.61349
    CHANNELS 3 Zrotation Xrotation Yrotation
    JOINT Spine1
    {
      OFFSET 7.38963 1.71661e-005 0
      CHANNELS 3 Zrotation Xrotation Yrotation
      JOINT Spine2
      {
        OFFSET 11.9445 1.14441e-005 0
        CHANNELS 3 Zrotation Xrotation Yrotation
        JOINT Spine3
        {
          OFFSET 14.7254 4.19617e-005 0
          CHANNELS 3 Zrotation Xrotation Yrotation
          JOINT Spine4
          {
            OFFSET 10.9679 0 0
            CHANNELS 3 Zrotation Xrotation Yrotation
            JOINT RightShoulder
            {
              OFFSET 2.46616 -1.6653 3.69651
              CHANNELS 3 Zrotation Xrotation Yrotation
              JOINT RightArm
              {
                OFFSET 13.0012 0 0
                CHANNELS 3 Zrotation Xrotation Yrotation
                JOINT RightForeArm
                {
                  OFFSET 28.7848 1.52588e-005 0
                  CHANNELS 3 Zrotation Xrotation Yrotation
                  JOINT RightHand
                  {
                    OFFSET 26.5688 1.52588e-005 0
                    CHANNELS 3 Zrotation Xrotation Yrotation
                    End Site
                    {
                      OFFSET 0 0 0
                    }
                  }
                }
              }
            }
            JOINT LeftShoulder
            {
              OFFSET 2.38034 -1.29275 -3.7523
              CHANNELS 3 Zrotation Xrotation Yrotation
              JOINT LeftArm
              {
                OFFSET 16.3182 6.10351e-005 0
                CHANNELS 3 Zrotation Xrotation Yrotation
                JOINT LeftForeArm
                {
                  OFFSET 27.0901 0 0
                  CHANNELS 3 Zrotation Xrotation Yrotation
                  JOINT LeftHand
                  {
                    OFFSET 24.5451 1.52588e-005 0
                    CHANNELS 3 Zrotation Xrotation Yrotation
                    End Site
                    {
                      OFFSET 0 0 0
                    }
                  }
                }
              }
            }
            JOINT Neck
            {
              OFFSET 5.0226 -0.0266342 0
              CHANNELS 3 Zrotation Xrotation Yrotation
              JOINT Head
              {
                OFFSET 6.69364 2.86102e-005 0
                CHANNELS 3 Zrotation Xrotation Yrotation
                End Site
                {
                  OFFSET 0 0 0
                }
              }
            }
          }
        }
      }
    }
  }
}
MOTION
Frames:	12
Frame Time:	0.0416667
35.7596 9.74694 40.2698 3.78245 -10.4768 -0.805155 -175.227 -1.97685 93.3011 -31.635 37.71 4.77874 90.8443 15.3999 2.82147 10.9166 9.27001 -9.86065 171.332 -13.8314 86.9739 -9.58103 -23.6134 -3.53151 99.1014 -17.5976 2.04855 28.6852 -1.25825 3.39866 0.0435736 6.35092 -89.9778 14.172 0.0972957 0.0312411 2.50108 0.0985783 0.0269077 -20.0341 0.0834048 0.0590446 -0.0214341 0.0834112 0.05903 95.4977 -14.0569 -100.371 21.6727 -6.76917 19.8351 10.1276 0.03447 -114.867 99.9456 -17.5545 -21.3962 -84.5813 -34.0285 84.5116 0.396057 14.5859 10.4641 97.6336 -28.2672 -88.4316 -60.0509 36.716 -66.6268 37.827 -2.42956 -4.77117 -3.70292 -0.11641 3.80146 
35.7001 9.83167 40.2705 3.71511 -10.5263 -0.884995 -175.308 -1.80607 93.1851 -31.676 37.0447 4.76097 90.0141 14.8001 2.20321 15.0784 8.69726 -10.2348 171.367 -13.8271 86.994 -9.62852 -24.0397 -3.58884 98.899 -17.8222 1.31116 29.1684 -1.41869 3.80857 0.0886159 6.30536 -90.0003 14.2631 0.175449 -0.024938 2.59219 0.174176 -0.0326429 -19.9431 0.174827 0.0289413 0.0695838 0.174831 0.0289441 95.606 -13.3015 -100.375 22.245 -6.59161 20.3901 12.7423 -2.09438 -113.473 109.975 -13.7786 -16.3359 -84.9908 -35.1014 83.959 1.34565 15.1136 10.5414 97.6915 -27.916 -88.2682 -60.1184 36.8655 -66.7609 35.4685 -2.23233 -3.11209 -1.37861 -0.709553 2.19211 
35.7134 9.81346 40.2558 3.79415 -10.4963 -0.914926 -175.332 -1.77565 93.1463 -31.6777 37.0602 4.75772 90.254 14.8761 2.05155 15.3633 8.22176 -9.69542 171.315 -13.8587 86.9592 -9.62059 -24.0488 -3.57184 98.9056 -17.9422 1.04916 30.0929 -1.75011 4.69315 0.0752153 6.29549 -89.999 14.283 0.14956 -0.0187355 2.61203 0.148585 -0.0253084 -19.9232 0.148275 0.0270793 0.0894758 0.148271 0.027076 95.0643 -13.755 -101.659 21.7122 -5.52864 21.5429 13.7738 -2.72436 -113.655 110.151 -13.0623 -15.8823 -85.0905 -35.2836 83.811 1.56957 14.9971 10.7903 97.9101 -27.8471 -88.4892 -59.7466 37.7794 -68.5174 35.2402 -2.09119 -2.97655 -1.35948 -0.645525 1.87812 
35.7447 9.80048 40.2598 3.89061 -10.4625 -0.886607 -175.414 -1.7097 93.0867 -31.8226 37.1422 4.90893 90.3672 14.9368 2.06564 16.4423 7.50157 -9.02339 171.295 -13.9158 86.961 -9.59659 -23.7885 -3.55703 98.9877 -17.9594 1.12453 31.3658 -2.18608 5.92493 0.0548758 6.32872 -89.9986 14.2165 0.109421 -0.012281 2.54553 0.108784 -0.0170892 -19.9897 0.108049 0.0211863 0.0229912 0.108054 0.0211682 95.2399 -13.6603 -101.224 21.9262 -5.89795 21.0165 11.2029 -2.67869 -113.855 108.27 -15.8289 -18.0999 -84.9122 -34.6535 84.0193 0.919427 14.4819 10.577 98.2589 -27.9724 -88.5479 -59.4529 37.9953 -69.1702 35.9488 -2.15711 -3.37993 -1.44643 -0.504423 2.45028 
35.7271 9.81882 40.25 3.83965 -10.4118 -0.922104 -175.457 -1.69127 93.0509 -31.7459 36.7875 4.87143 90.5018 14.9131 1.81169 18.1499 6.50053 -8.08583 171.353 -13.9326 87.004 -9.61487 -23.751 -3.614 98.9308 -18.1113 0.736778 33.1548 -2.70875 7.54479 0.0690654 6.26247 -90.0086 14.349 0.132654 -0.0357939 2.67804 0.130951 -0.0416034 -19.8572 0.137271 0.0057421 0.155496 0.137278 0.00572716 94.8924 -13.4612 -102.25 22.6283 -5.63558 22.325 15.3447 -2.972 -113.707 109.976 -11.1011 -14.6402 -85.3947 -35.4539 83.2958 1.46449 14.9891 11.3209 97.9963 -27.7458 -87.5858 -66.0114 36.5001 -60.4464 34.3693 -2.00996 -2.88224 -0.647043 -0.620291 2.01762 
35.7073 9.8127 40.2328 3.71849 -10.4108 -0.984094 -175.357 -1.66315 93.0753 -31.7856 37.3003 4.76423 90.2282 14.9888 2.42577 21.1459 5.47404 -7.32438 171.383 -14.0215 87.0333 -9.66841 -24.162 -3.69258 98.7679 -18.4856 -0.295163 35.3068 -3.22796 9.37365 0.0748354 6.27635 -90.0058 14.3212 0.145436 -0.0320153 2.65022 0.143893 -0.0383875 -19.885 0.148334 0.0131771 0.127661 0.148332 0.0131791 94.9148 -14.5413 -101.731 20.0161 -5.78173 21.7344 12.0781 -2.67736 -113.672 108.845 -15.246 -17.6072 -85.2681 -35.4243 83.5171 1.14166 14.8158 11.2947 98.5816 -28.3653 -87.4061 -62.3581 35.605 -62.5807 34.9528 -1.72548 -2.07151 -1.04493 -0.706655 1.23738 
35.6851 9.82738 40.2161 3.85717 -10.4031 -0.976181 -175.367 -1.55886 93.0834 -31.9521 37.347 4.81819 90.1934 14.9845 2.47952 24.2612 4.25374 -6.1748 171.439 -14.1449 87.1381 -9.66572 -23.9696 -3.71915 98.6911 -18.711 -0.843128 37.4691 -3.6706 11.1945 0.0575629 6.27546 -90.0163 14.323 0.106075 -0.047451 2.65208 0.103883 -0.052063 -19.8831 0.115423 -0.0133752 0.129524 0.115428 -0.013374 94.9278 -14.6692 -101.643 19.1632 -5.65351 21.6005 13.7463 -3.21332 -113.532 109.545 -13.9115 -16.6251 -85.2565 -35.6743 83.5845 1.44577 14.7138 11.3219 97.8152 -28.1046 -88.1662 -62.3602 37.1394 -64.8696 35.1207 -1.50088 -1.51278 -1.28508 -0.742777 0.822123 
35.7663 9.82089 40.1933 3.91391 -10.2751 -0.995385 -175.565 -1.41057 92.9025 -32.0492 36.7702 4.9434 90.5735 14.9395 1.75906 26.9511 2.56771 -4.01368 171.35 -14.1333 87.0864 -9.6561 -24.1022 -3.69264 98.6519 -19.0152 -1.55341 39.6416 -4.01808 12.9337 0.0192658 6.2428 -90.0069 14.3883 0.0348145 -0.0187015 2.71733 0.0339512 -0.0202284 -19.8178 0.038819 -0.00738666 0.194827 0.0388186 -0.00736983 94.4897 -15.1729 -102.589 18.2879 -5.19396 22.1211 13.7528 -3.51597 -113.548 109.621 -14.1601 -16.782 -85.0456 -35.6787 83.9635 1.75236 14.4932 11.4139 95.8062 -28.2433 -88.2859 -66.9421 34.7402 -57.126 34.7474 -1.56565 -2.13179 -0.91621 -0.532973 1.13497 
35.7495 9.7945 40.1932 3.86004 -10.3251 -0.987444 -175.388 -1.42035 93.0386 -32.1428 37.2324 4.77567 90.339 15.0568 2.40119 30.3871 1.48783 -2.75028 171.437 -14.3269 87.1958 -9.68553 -24.1301 -3.78808 98.5994 -19.3163 -2.25749 41.7785 -4.27124 14.555 0.0689968 6.31794 -90.0229 14.2378 0.125502 -0.0633272 2.56688 0.122588 -0.0688085 -19.9683 0.138724 -0.0226823 0.0443204 0.138726 -0.0226818 95.4226 -13.9374 -100.618 19.585 -5.81249 20.8408 13.935 -3.65177 -113.898 108.69 -14.12 -16.9857 -84.9346 -34.3259 83.9185 0.103826 13.7965 11.0037 95.5906 -28.2255 -88.5824 -66.7023 34.4444 -56.9521 36.4426 -1.75004 -2.0248 -1.80314 -0.727501 1.46653 
35.7553 9.80121 40.1652 3.92746 -10.2919 -0.97784 -175.54 -1.39088 92.916 -32.2724 37.0979 4.99024 90.4565 15.0996 2.41532 33.9562 0.0500459 -0.618869 171.492 -14.423 87.3014 -9.69626 -24.1376 -3.83308 98.4597 -19.6343 -3.09108 43.8954 -4.43473 16.0449 0.0242832 6.26196 -90.0019 14.35 0.0472145 -0.0104688 2.67905 0.0467078 -0.0125468 -19.8561 0.0481702 0.00420352 0.156533 0.0481721 0.00420654 94.4076 -15.8096 -102.533 17.6056 -4.99038 22.0331 14.6072 -4.05576 -113.762 109.591 -13.1263 -16.1054 -85.2006 -35.1815 83.5904 1.22809 13.9223 11.777 95.198 -28.2436 -88.6635 -66.7216 34.2829 -56.7086 35.2503 -1.61175 -2.48076 -1.18887 -0.411187 1.62166 
35.7666 9.81126 40.1498 3.94864 -10.2327 -1.05665 -175.558 -1.27995 92.8498 -32.2976 36.9814 4.90936 90.5755 15.1072 2.2281 37.3269 -1.11856 1.35427 171.496 -14.4613 87.2985 -9.71822 -24.1012 -3.90792 98.4234 -19.9045 -3.69728 45.7751 -4.52015 17.3095 0.0295308 6.24675 -89.9988 14.3804 0.0591066 -0.00594676 2.70946 0.0587808 -0.00855752 -19.8257 0.0581592 0.0120942 0.186957 0.0581563 0.0120892 94.8613 -14.7755 -101.773 19.0865 -5.57809 21.6517 14.3728 -3.5336 -113.844 109.52 -13.2739 -16.2234 -85.0723 -35.0351 83.7998 1.04299 14.3661 11.6961 95.313 -28.3002 -88.4899 -66.7669 34.3258 -56.7276 34.8583 -1.63268 -2.28621 -0.675461 -0.520308 1.42748 
35.7518 9.82399 40.1362 4.00628 -10.1063 -0.996766 -175.607 -1.03428 92.8911 -32.4529 36.6466 4.9767 90.8575 15.0295 1.50634 40.6581 -2.34148 3.77372 171.671 -14.4522 87.5135 -9.72732 -23.8684 -3.98751 98.3788 -20.1235 -4.18275 47.4683 -4.54982 18.3862 0.0195164 6.23443 -89.9959 14.4046 0.0407738 0.00323323 2.73367 0.0408675 0.00143039 -19.8015 0.0379116 0.0153395 0.211193 0.0379142 0.0153307 94.3984 -15.5199 -102.704 17.9524 -4.79407 22.1465 14.6712 -3.90662 -113.814 109.723 -13.0696 -16.0379 -85.2398 -34.9822 83.4828 0.958148 14.1515 11.9701 95.9457 -28.2308 -88.421 -66.2814 34.8656 -57.9176 34.4471 -1.81879 -2.90377 -0.304626 -0.41208 1.87125 
